<svg width="24" height="22" viewBox="0 0 24 22" fill="none" xmlns="http://www.w3.org/2000/svg">
<path d="M3.78123 22H20.2308C22.7476 22 24 20.7572 24 18.2955V3.70451C24 1.2428 22.7476 0 20.2308 0H3.78123C1.26443 0 0 1.23085 0 3.70451V18.2955C0 20.7691 1.26443 22 3.78123 22ZM3.6006 20.076C2.52885 20.076 1.93879 19.5144 1.93879 18.403V7.13417C1.93879 6.03476 2.52885 5.46116 3.6006 5.46116H20.3874C21.4591 5.46116 22.0612 6.03476 22.0612 7.13417V18.403C22.0612 19.5144 21.4591 20.076 20.3874 20.076H3.6006ZM9.64576 9.75122H10.3562C10.7777 9.75122 10.9222 9.63172 10.9222 9.21347V8.50842C10.9222 8.09017 10.7777 7.95872 10.3562 7.95872H9.64576C9.22429 7.95872 9.07978 8.09017 9.07978 8.50842V9.21347C9.07978 9.63172 9.22429 9.75122 9.64576 9.75122ZM13.6558 9.75122H14.3542C14.7757 9.75122 14.9202 9.63172 14.9202 9.21347V8.50842C14.9202 8.09017 14.7757 7.95872 14.3542 7.95872H13.6558C13.2223 7.95872 13.0898 8.09017 13.0898 8.50842V9.21347C13.0898 9.63172 13.2223 9.75122 13.6558 9.75122ZM17.6538 9.75122H18.3643C18.7857 9.75122 18.9182 9.63172 18.9182 9.21347V8.50842C18.9182 8.09017 18.7857 7.95872 18.3643 7.95872H17.6538C17.2323 7.95872 17.0878 8.09017 17.0878 8.50842V9.21347C17.0878 9.63172 17.2323 9.75122 17.6538 9.75122ZM5.64777 13.6589H6.35825C6.77973 13.6589 6.91219 13.5394 6.91219 13.1211V12.4161C6.91219 11.9978 6.77973 11.8783 6.35825 11.8783H5.64777C5.22629 11.8783 5.08179 11.9978 5.08179 12.4161V13.1211C5.08179 13.5394 5.22629 13.6589 5.64777 13.6589ZM9.64576 13.6589H10.3562C10.7777 13.6589 10.9222 13.5394 10.9222 13.1211V12.4161C10.9222 11.9978 10.7777 11.8783 10.3562 11.8783H9.64576C9.22429 11.8783 9.07978 11.9978 9.07978 12.4161V13.1211C9.07978 13.5394 9.22429 13.6589 9.64576 13.6589ZM13.6558 13.6589H14.3542C14.7757 13.6589 14.9202 13.5394 14.9202 13.1211V12.4161C14.9202 11.9978 14.7757 11.8783 14.3542 11.8783H13.6558C13.2223 11.8783 13.0898 11.9978 13.0898 12.4161V13.1211C13.0898 13.5394 13.2223 13.6589 13.6558 13.6589ZM17.6538 13.6589H18.3643C18.7857 13.6589 18.9182 13.5394 18.9182 13.1211V12.4161C18.9182 11.9978 18.7857 11.8783 18.3643 11.8783H17.6538C17.2323 11.8783 17.0878 11.9978 17.0878 12.4161V13.1211C17.0878 13.5394 17.2323 13.6589 17.6538 13.6589ZM5.64777 17.5785H6.35825C6.77973 17.5785 6.91219 17.447 6.91219 17.0288V16.3237C6.91219 15.9055 6.77973 15.786 6.35825 15.786H5.64777C5.22629 15.786 5.08179 15.9055 5.08179 16.3237V17.0288C5.08179 17.447 5.22629 17.5785 5.64777 17.5785ZM9.64576 17.5785H10.3562C10.7777 17.5785 10.9222 17.447 10.9222 17.0288V16.3237C10.9222 15.9055 10.7777 15.786 10.3562 15.786H9.64576C9.22429 15.786 9.07978 15.9055 9.07978 16.3237V17.0288C9.07978 17.447 9.22429 17.5785 9.64576 17.5785ZM13.6558 17.5785H14.3542C14.7757 17.5785 14.9202 17.447 14.9202 17.0288V16.3237C14.9202 15.9055 14.7757 15.786 14.3542 15.786H13.6558C13.2223 15.786 13.0898 15.9055 13.0898 16.3237V17.0288C13.0898 17.447 13.2223 17.5785 13.6558 17.5785Z" fill="white" fill-opacity="0.2"/>
</svg>
