<svg width="15" height="18" viewBox="0 0 15 18" fill="none" xmlns="http://www.w3.org/2000/svg">
<path d="M2.65352 18H12.3465C13.231 18 13.893 17.7832 14.3324 17.3497C14.7775 16.9162 15 16.2714 15 15.4155V7.09495C15 6.239 14.7775 5.59426 14.3324 5.16072C13.893 4.72719 13.231 4.51042 12.3465 4.51042H9.98873V5.85271H12.3211C12.738 5.85271 13.062 5.96387 13.293 6.1862C13.5239 6.40852 13.6394 6.73645 13.6394 7.16999V15.3404C13.6394 15.774 13.5239 16.1019 13.293 16.3242C13.062 16.5466 12.738 16.6577 12.3211 16.6577H2.67042C2.24789 16.6577 1.92394 16.5466 1.69859 16.3242C1.47324 16.1019 1.36056 15.774 1.36056 15.3404V7.16999C1.36056 6.73645 1.47324 6.40852 1.69859 6.1862C1.92394 5.96387 2.24789 5.85271 2.67042 5.85271H5.01127V4.51042H2.65352C1.76901 4.51042 1.10423 4.72719 0.659155 5.16072C0.219718 5.5887 0 6.23344 0 7.09495V15.4155C0 16.277 0.219718 16.9217 0.659155 17.3497C1.10423 17.7832 1.76901 18 2.65352 18ZM7.50423 12.5141C7.58873 12.5141 7.66761 12.5002 7.74084 12.4724C7.81972 12.4391 7.90141 12.3807 7.98592 12.2974L10.8423 9.5711C10.9099 9.50996 10.9606 9.44604 10.9944 9.37934C11.0282 9.30709 11.0451 9.22649 11.0451 9.13756C11.0451 8.96526 10.9859 8.82631 10.8676 8.7207C10.7493 8.60954 10.6028 8.55396 10.4282 8.55396C10.2423 8.55396 10.0901 8.62066 9.97183 8.75405L8.68732 10.0963L8.12113 10.6883L8.17183 9.4377V0.650301C8.17183 0.472441 8.10423 0.319592 7.96901 0.191755C7.83944 0.0639185 7.68451 0 7.50423 0C7.31831 0 7.15775 0.0639185 7.02253 0.191755C6.89296 0.319592 6.82817 0.472441 6.82817 0.650301V9.4377L6.87887 10.6883L6.31268 10.0963L5.02817 8.75405C4.90986 8.62066 4.75493 8.55396 4.56338 8.55396C4.38873 8.55396 4.24225 8.60954 4.12394 8.7207C4.01127 8.82631 3.95493 8.96526 3.95493 9.13756C3.95493 9.22649 3.97183 9.30709 4.00563 9.37934C4.03944 9.44604 4.09014 9.50996 4.15775 9.5711L7.01408 12.2974C7.09859 12.3807 7.17746 12.4391 7.2507 12.4724C7.32958 12.5002 7.41408 12.5141 7.50423 12.5141Z" fill="white" fill-opacity="0.5"/>
</svg>
