<svg width="16" height="16" viewBox="0 0 16 16" fill="none" xmlns="http://www.w3.org/2000/svg">
<path fill-rule="evenodd" clip-rule="evenodd" d="M16 8C16 12.4183 12.4183 16 8 16C3.58172 16 0 12.4183 0 8C0 3.58172 3.58172 0 8 0C12.4183 0 16 3.58172 16 8ZM6.00008 11.2858C6.00563 11.721 6.30562 12 6.77227 12H10.2277C10.6944 12 10.9944 11.721 10.9999 11.2858C11.0055 10.8394 10.7055 10.5604 10.2277 10.5604H9.39442V6.81649C9.39442 6.36454 9.09998 6.08556 8.65555 6.08556H6.92783C6.45006 6.08556 6.15007 6.36454 6.15007 6.81091C6.15563 7.24613 6.45562 7.52511 6.92783 7.52511H7.8778V10.5604H6.77227C6.29451 10.5604 5.99452 10.8394 6.00008 11.2858ZM8.43334 4.95846C7.88891 4.95846 7.46114 4.52325 7.46114 3.98202C7.46114 3.42963 7.88891 3 8.43334 3C8.97776 3 9.39997 3.42963 9.40553 3.98202C9.40553 4.52325 8.97776 4.95846 8.43334 4.95846Z" fill="white"/>
</svg>
