<svg width="22" height="22" viewBox="0 0 22 22" fill="none" xmlns="http://www.w3.org/2000/svg">
<path opacity="1" d="M11 22C12.5026 22 13.9154 21.7124 15.2382 21.1373C16.5683 20.5621 17.7402 19.7676 18.7539 18.7539C19.7676 17.7402 20.5621 16.5719 21.1373 15.249C21.7124 13.919 22 12.5026 22 11C22 9.49739 21.7124 8.08464 21.1373 6.76176C20.5621 5.4317 19.7676 4.2598 18.7539 3.24608C17.7402 2.23235 16.5683 1.43791 15.2382 0.862745C13.9082 0.287582 12.4918 0 10.9892 0C9.4866 0 8.07026 0.287582 6.7402 0.862745C5.41732 1.43791 4.24902 2.23235 3.23529 3.24608C2.22876 4.2598 1.43791 5.4317 0.862745 6.76176C0.287582 8.08464 0 9.49739 0 11C0 12.5026 0.287582 13.919 0.862745 15.249C1.43791 16.5719 2.23235 17.7402 3.24608 18.7539C4.2598 19.7676 5.4281 20.5621 6.75098 21.1373C8.08105 21.7124 9.49739 22 11 22ZM11 20.1667C9.72745 20.1667 8.53758 19.9294 7.43039 19.4549C6.3232 18.9804 5.34902 18.3261 4.50784 17.4922C3.67386 16.651 3.01961 15.6768 2.5451 14.5696C2.07778 13.4624 1.84412 12.2725 1.84412 11C1.84412 9.72745 2.07778 8.53758 2.5451 7.43039C3.01961 6.3232 3.67386 5.34902 4.50784 4.50784C5.34183 3.66667 6.31242 3.01242 7.41961 2.5451C8.5268 2.07059 9.71667 1.83333 10.9892 1.83333C12.2618 1.83333 13.4516 2.07059 14.5588 2.5451C15.666 3.01242 16.6402 3.66667 17.4814 4.50784C18.3225 5.34902 18.9804 6.3232 19.4549 7.43039C19.9294 8.53758 20.1667 9.72745 20.1667 11C20.1667 12.2725 19.9294 13.4624 19.4549 14.5696C18.9876 15.6768 18.3333 16.651 17.4922 17.4922C16.6582 18.3261 15.684 18.9804 14.5696 19.4549C13.4624 19.9294 12.2725 20.1667 11 20.1667ZM7.94804 15.2059H9.01569C9.2817 15.2059 9.47582 15.1412 9.59804 15.0118C9.72745 14.8824 9.79216 14.7134 9.79216 14.5049V7.4951C9.79216 7.2866 9.72745 7.11765 9.59804 6.98824C9.47582 6.85163 9.2817 6.78333 9.01569 6.78333H7.94804C7.68203 6.78333 7.48431 6.85163 7.3549 6.98824C7.23268 7.11765 7.17157 7.2866 7.17157 7.4951V14.5049C7.17157 14.7134 7.23268 14.8824 7.3549 15.0118C7.48431 15.1412 7.68203 15.2059 7.94804 15.2059ZM12.9951 15.2059H14.052C14.3108 15.2059 14.5049 15.1412 14.6343 15.0118C14.7637 14.8824 14.8284 14.7134 14.8284 14.5049V7.4951C14.8284 7.2866 14.7637 7.11765 14.6343 6.98824C14.5049 6.85163 14.3108 6.78333 14.052 6.78333H12.9951C12.7291 6.78333 12.5314 6.85163 12.402 6.98824C12.2725 7.11765 12.2078 7.2866 12.2078 7.4951V14.5049C12.2078 14.7134 12.2725 14.8824 12.402 15.0118C12.5314 15.1412 12.7291 15.2059 12.9951 15.2059Z" fill="black"/>
</svg>
