<svg width="22" height="22" viewBox="0 0 22 22" fill="none" xmlns="http://www.w3.org/2000/svg">
<path opacity="1" d="M11 22C12.5026 22 13.9154 21.7124 15.2382 21.1373C16.5683 20.5621 17.7402 19.7676 18.7539 18.7539C19.7676 17.7402 20.5621 16.5719 21.1373 15.249C21.7124 13.919 22 12.5026 22 11C22 9.49739 21.7124 8.08464 21.1373 6.76176C20.5621 5.4317 19.7676 4.2598 18.7539 3.24608C17.7402 2.23235 16.5683 1.43791 15.2382 0.862745C13.9082 0.287582 12.4918 0 10.9892 0C9.4866 0 8.07026 0.287582 6.7402 0.862745C5.41732 1.43791 4.24902 2.23235 3.23529 3.24608C2.22876 4.2598 1.43791 5.4317 0.862745 6.76176C0.287582 8.08464 0 9.49739 0 11C0 12.5026 0.287582 13.919 0.862745 15.249C1.43791 16.5719 2.23235 17.7402 3.24608 18.7539C4.2598 19.7676 5.4281 20.5621 6.75098 21.1373C8.08105 21.7124 9.49739 22 11 22ZM11 20.1667C9.72745 20.1667 8.53758 19.9294 7.43039 19.4549C6.3232 18.9804 5.34902 18.3261 4.50784 17.4922C3.67386 16.651 3.01961 15.6768 2.5451 14.5696C2.07778 13.4624 1.84412 12.2725 1.84412 11C1.84412 9.72745 2.07778 8.53758 2.5451 7.43039C3.01961 6.3232 3.67386 5.34902 4.50784 4.50784C5.34183 3.66667 6.31242 3.01242 7.41961 2.5451C8.5268 2.07059 9.71667 1.83333 10.9892 1.83333C12.2618 1.83333 13.4516 2.07059 14.5588 2.5451C15.666 3.01242 16.6402 3.66667 17.4814 4.50784C18.3225 5.34902 18.9804 6.3232 19.4549 7.43039C19.9294 8.53758 20.1667 9.72745 20.1667 11C20.1667 12.2725 19.9294 13.4624 19.4549 14.5696C18.9876 15.6768 18.3333 16.651 17.4922 17.4922C16.6582 18.3261 15.684 18.9804 14.5696 19.4549C13.4624 19.9294 12.2725 20.1667 11 20.1667ZM15.1304 11.5931C15.3533 11.4565 15.4611 11.2624 15.4539 11.0108C15.4539 10.7592 15.3461 10.5686 15.1304 10.4392L8.98333 6.79412C8.75327 6.65752 8.51601 6.63595 8.27157 6.72941C8.02712 6.82288 7.9049 6.99902 7.9049 7.25784V14.7529C7.9049 15.019 8.01993 15.2023 8.25 15.3029C8.48726 15.3964 8.7317 15.3676 8.98333 15.2167L15.1304 11.5931Z" fill="black"/>
</svg>
