<svg width="14" height="16" viewBox="0 0 14 16" fill="none" xmlns="http://www.w3.org/2000/svg">
<path d="M3.56324 15.9153H10.4368C10.8849 15.9153 11.2366 15.7949 11.492 15.5539C11.7522 15.313 11.8919 14.9685 11.9112 14.5204L12.3738 3.96076H13.4579C13.6073 3.96076 13.735 3.90776 13.841 3.80176C13.947 3.69093 14 3.56083 14 3.41146C14 3.26209 13.947 3.1344 13.841 3.02839C13.735 2.92239 13.6073 2.86939 13.4579 2.86939H0.542075C0.397522 2.86939 0.269833 2.9248 0.159009 3.03562C0.0530029 3.14163 0 3.26691 0 3.41146C0 3.56083 0.0530029 3.69093 0.159009 3.80176C0.269833 3.90776 0.397522 3.96076 0.542075 3.96076H1.63345L2.09602 14.5204C2.1153 14.9685 2.25262 15.313 2.508 15.5539C2.7682 15.7949 3.11995 15.9153 3.56324 15.9153ZM4.71244 13.8482C4.58234 13.8482 4.47393 13.8097 4.3872 13.7326C4.30528 13.6555 4.26433 13.5519 4.26433 13.4218L4.04027 5.55085C4.04027 5.42557 4.08123 5.32438 4.16314 5.24729C4.24505 5.16538 4.35588 5.12442 4.49561 5.12442C4.62089 5.12442 4.72449 5.16297 4.8064 5.24006C4.89313 5.31716 4.93891 5.41834 4.94373 5.54362L5.16056 13.4218C5.16538 13.5471 5.12683 13.6507 5.04491 13.7326C4.963 13.8097 4.85218 13.8482 4.71244 13.8482ZM7.00361 13.8482C6.86388 13.8482 6.75065 13.8097 6.66391 13.7326C6.57718 13.6507 6.53382 13.5471 6.53382 13.4218V5.55085C6.53382 5.42557 6.57718 5.32438 6.66391 5.24729C6.75065 5.16538 6.86388 5.12442 7.00361 5.12442C7.13853 5.12442 7.24935 5.16538 7.33609 5.24729C7.42282 5.32438 7.46619 5.42557 7.46619 5.55085V13.4218C7.46619 13.5471 7.42282 13.6507 7.33609 13.7326C7.24935 13.8097 7.13853 13.8482 7.00361 13.8482ZM9.28756 13.8482C9.14782 13.8482 9.037 13.8097 8.95509 13.7326C8.87317 13.6507 8.83462 13.5471 8.83944 13.4218L9.05627 5.55085C9.06109 5.42075 9.10446 5.31716 9.18637 5.24006C9.2731 5.16297 9.37911 5.12442 9.50439 5.12442C9.64412 5.12442 9.75495 5.16538 9.83686 5.24729C9.91877 5.32438 9.95973 5.42557 9.95973 5.55085L9.73567 13.4218C9.73567 13.5519 9.69231 13.6555 9.60558 13.7326C9.52366 13.8097 9.41766 13.8482 9.28756 13.8482ZM3.75116 3.10067H5.05937V1.83583C5.05937 1.65273 5.11719 1.50576 5.23283 1.39494C5.34848 1.28412 5.50508 1.2287 5.70263 1.2287H8.29014C8.4877 1.2287 8.6443 1.28412 8.75994 1.39494C8.87558 1.50576 8.9334 1.65273 8.9334 1.83583V3.10067H10.2344V1.76355C10.2344 1.21907 10.0657 0.790225 9.72845 0.477026C9.39597 0.159009 8.94063 0 8.36242 0H5.62313C5.04491 0 4.58716 0.159009 4.24987 0.477026C3.9174 0.790225 3.75116 1.21907 3.75116 1.76355V3.10067Z" fill="white" fill-opacity="1"/>
</svg>
