<svg width="80" height="20" viewBox="0 0 80 20" fill="none" xmlns="http://www.w3.org/2000/svg">
<g clip-path="url(#clip0)">
<path d="M33.2717 18.954V6.27573H33.1778L28.1065 18.954H26.1343L21.063 6.27573H20.9691V18.954H18.6213V1.76791H21.6265L27.0735 15.4792H27.1674L32.6143 1.76791H35.7135V18.954H33.2717ZM48.9552 18.954H46.5135V16.794H46.4196C45.7622 18.2966 44.4474 19.1418 42.5691 19.1418C39.8456 19.1418 38.2491 17.3575 38.2491 14.4462V6.36965H40.7848V13.9766C40.7848 15.8549 41.7239 16.8879 43.4143 16.8879C45.2926 16.8879 46.3256 15.5731 46.3256 13.601V6.36965H48.8613L48.9552 18.954ZM55.9048 6.18182C58.8161 6.18182 60.6004 7.77834 60.6943 10.1262H58.3465C58.1587 8.9053 57.3135 8.154 55.9048 8.154C54.4961 8.154 53.5569 8.81139 53.5569 9.84443C53.5569 10.5957 54.1204 11.1592 55.4352 11.441L57.4074 11.9105C59.943 12.474 60.8822 13.507 60.8822 15.2914C60.8822 17.5453 58.8161 19.1418 55.9048 19.1418C52.8056 19.1418 50.9274 17.6392 50.7396 15.1975H53.2752C53.463 16.5123 54.4022 17.1696 55.9048 17.1696C57.4074 17.1696 58.3465 16.5123 58.3465 15.4792C58.3465 14.634 57.8769 14.1644 56.5622 13.8827L54.59 13.4131C52.2422 12.8496 51.1152 11.7227 51.1152 9.84443C51.1152 7.68443 52.9935 6.18182 55.9048 6.18182ZM62.7604 3.08269C62.7604 2.23747 63.4178 1.58008 64.263 1.58008C65.1082 1.58008 65.7656 2.23747 65.7656 3.08269C65.7656 3.92791 65.1082 4.5853 64.263 4.5853C63.4178 4.5853 62.7604 3.92791 62.7604 3.08269ZM62.9482 6.36965H65.4839V18.954H62.9482V6.36965ZM76.19 10.6896C75.9082 9.37487 74.9691 8.24791 73.2787 8.24791C71.3065 8.24791 69.9917 9.93834 69.9917 12.5679C69.9917 15.2914 71.3065 16.8879 73.2787 16.8879C74.8752 16.8879 75.8143 16.0427 76.19 14.5401H78.6317C78.35 17.1696 76.2839 19.0479 73.2787 19.0479C69.71 19.0479 67.4561 16.6062 67.4561 12.5679C67.4561 8.62356 69.71 6.08791 73.2787 6.08791C76.4717 6.08791 78.35 8.154 78.6317 10.5957L76.19 10.6896ZM10.8265 3.45834C10.1691 4.20965 9.13607 4.86704 8.10303 4.77313C7.9152 3.64617 8.47868 2.51921 9.04216 1.86182C9.69955 1.0166 10.8265 0.453125 11.7656 0.453125C11.8595 1.48617 11.4839 2.61312 10.8265 3.45834ZM11.7656 4.96095C12.3291 4.96095 14.0195 5.14878 15.1465 6.83921C15.0526 6.93313 13.1743 8.06008 13.1743 10.4079C13.1743 13.2253 15.6161 14.1644 15.6161 14.1644C15.6161 14.2583 15.2404 15.4792 14.3952 16.794C13.6439 17.921 12.7987 19.0479 11.5778 19.0479C10.3569 19.0479 9.98129 18.2966 8.57259 18.2966C7.1639 18.2966 6.69433 19.0479 5.56737 19.0479C4.34651 19.0479 3.40737 17.827 2.65607 16.7001C1.05955 14.3523 -0.161321 10.1262 1.52911 7.30878C2.28042 5.90008 3.78303 4.96095 5.28564 4.96095C6.50651 4.96095 7.63346 5.80617 8.29085 5.80617C8.94825 5.80617 10.263 4.86704 11.7656 4.96095Z" fill="white" fill-opacity="0.8"/>
</g>
<defs>
<clipPath id="clip0">
<rect width="79.1687" height="19.44" fill="white" transform="translate(0.0273438 0.078125)"/>
</clipPath>
</defs>
</svg>
