<svg width="78" height="15" viewBox="0 0 78 15" fill="none" xmlns="http://www.w3.org/2000/svg">
<path d="M18.2656 9.89818C18.2656 13.026 20.1922 14.898 23.0548 14.898C24.4822 14.898 25.6834 14.5002 26.3542 13.455V14.898H28.9672V0H26.2528V6.33359C25.6366 5.28839 24.4978 4.82039 23.0704 4.82039C20.278 4.81259 18.2656 6.72359 18.2656 9.89818ZM26.3386 9.89818C26.3386 11.6844 25.1218 12.7998 23.6632 12.7998C22.15 12.7998 20.9878 11.6844 20.9878 9.89818C20.9878 8.08078 22.1578 6.94199 23.6632 6.94199C25.1218 6.94199 26.3386 8.09638 26.3386 9.89818Z" fill="white" fill-opacity="0.8"/>
<path d="M37.4075 11.0525C37.0955 12.2069 36.3077 12.7841 35.0675 12.7841C33.6245 12.7841 32.4389 11.9105 32.4077 10.3661H39.2483C39.3341 9.98388 39.3731 9.57828 39.3731 9.13368C39.3731 6.36468 37.4855 4.80469 34.7009 4.80469C31.7291 4.80469 29.6855 6.91848 29.6855 9.78888C29.6855 12.9869 31.9397 14.9057 35.0597 14.9057C37.4153 14.9057 39.0143 13.9229 39.7163 11.9651L37.4075 11.0525ZM32.4077 8.55648C32.6651 7.44108 33.5933 6.78588 34.7087 6.78588C35.9255 6.78588 36.7523 7.44108 36.7523 8.47068L36.7367 8.55648H32.4077V8.55648Z" fill="white" fill-opacity="0.8"/>
<path d="M47.4798 11.0525C47.1678 12.2069 46.38 12.7841 45.1398 12.7841C43.6968 12.7841 42.5112 11.9105 42.48 10.3661H49.3206C49.4064 9.98388 49.4454 9.57828 49.4454 9.13368C49.4454 6.36468 47.5578 4.80469 44.7732 4.80469C41.8014 4.80469 39.7578 6.91848 39.7578 9.78888C39.7578 12.9869 42.012 14.9057 45.132 14.9057C47.4876 14.9057 49.0866 13.9229 49.7886 11.9651L47.4798 11.0525ZM42.48 8.55648C42.7374 7.44108 43.6656 6.78588 44.781 6.78588C45.9978 6.78588 46.8246 7.44108 46.8246 8.47068L46.809 8.55648H42.48V8.55648Z" fill="white" fill-opacity="0.8"/>
<path d="M59.0186 14.9115V12.4545H53.3168L58.8626 7.05694V4.81055H50.0876V7.15054H55.4462L49.916 12.5715V14.9115H59.0186Z" fill="white" fill-opacity="0.8"/>
<path d="M66.9564 11.0525C66.6444 12.2069 65.8566 12.7841 64.6164 12.7841C63.1734 12.7841 61.9878 11.9105 61.9566 10.3661H68.7972C68.883 9.98388 68.922 9.57828 68.922 9.13368C68.922 6.36468 67.0344 4.80469 64.2498 4.80469C61.278 4.80469 59.2344 6.91848 59.2344 9.78888C59.2344 12.9869 61.4886 14.9057 64.6086 14.9057C66.9642 14.9057 68.5632 13.9229 69.2652 11.9651L66.9564 11.0525ZM61.9566 8.55648C62.214 7.44108 63.1422 6.78588 64.2576 6.78588C65.4744 6.78588 66.3012 7.44108 66.3012 8.47068L66.2856 8.55648H61.9566V8.55648Z" fill="white" fill-opacity="0.8"/>
<path d="M15.4731 4.81055H12.127V6.76834H15.4731V4.81055Z" fill="white" fill-opacity="0.8"/>
<path d="M15.4731 7.52734H12.127V9.48514H15.4731V7.52734Z" fill="white" fill-opacity="0.8"/>
<path d="M15.4731 10.2344H12.127V12.1922H15.4731V10.2344Z" fill="white" fill-opacity="0.8"/>
<path d="M3.34619 12.959H0V14.9168H3.34619V12.959Z" fill="white" fill-opacity="0.8"/>
<path d="M7.38721 12.959H4.04102V14.9168H7.38721V12.959Z" fill="white" fill-opacity="0.8"/>
<path d="M11.436 12.959H8.08984V14.9168H11.436V12.959Z" fill="white" fill-opacity="0.8"/>
<path d="M15.4731 12.959H12.127V14.9168H15.4731V12.959Z" fill="white" fill-opacity="0.8"/>
<path d="M11.436 10.2344H8.08984V12.1922H11.436V10.2344Z" fill="white" fill-opacity="0.8"/>
<path d="M7.38721 10.2344H4.04102V12.1922H7.38721V10.2344Z" fill="white" fill-opacity="0.8"/>
<path d="M7.38721 7.52734H4.04102V9.48514H7.38721V7.52734Z" fill="white" fill-opacity="0.8"/>
<path d="M75.3546 8.30107C75.3546 8.40247 75.3546 8.58967 75.3546 8.58967H77.9988C77.9988 8.58967 77.9988 8.09047 77.9988 7.81747C77.9988 6.08588 76.9146 4.83008 75.0972 4.83008C73.9272 4.83008 73.1004 5.39948 72.6714 6.34328V4.83008H69.9414V14.9155H72.6714V8.41807C72.6714 7.38847 73.2252 6.81907 74.0754 6.81907C74.8554 6.82687 75.3546 7.56007 75.3546 8.30107Z" fill="white" fill-opacity="0.8"/>
</svg>
