<svg width="43" height="43" viewBox="0 0 43 43" fill="none" xmlns="http://www.w3.org/2000/svg">
<path fill-rule="evenodd" clip-rule="evenodd" d="M11.9359 4.30284C7.72026 4.30284 4.30284 7.72026 4.30284 11.9359V31.0184C4.30284 35.234 7.72026 38.6515 11.9359 38.6515H31.0184C35.234 38.6515 38.6515 35.234 38.6515 31.0184V11.9359C38.6515 7.72026 35.234 4.30284 31.0184 4.30284H11.9359ZM0.486328 11.9359C0.486328 5.61246 5.61246 0.486328 11.9359 0.486328H31.0184C37.3419 0.486328 42.468 5.61246 42.468 11.9359V31.0184C42.468 37.3419 37.3419 42.468 31.0184 42.468H11.9359C5.61246 42.468 0.486328 37.3419 0.486328 31.0184V11.9359Z" fill="white" fill-opacity="0.8"/>
<path fill-rule="evenodd" clip-rule="evenodd" d="M22.3966 15.7339C21.2055 15.5573 19.9891 15.7607 18.9203 16.3153C17.8514 16.8699 16.9847 17.7474 16.4434 18.823C15.902 19.8985 15.7136 21.1174 15.9049 22.3063C16.0962 23.4951 16.6574 24.5933 17.5089 25.4448C18.3603 26.2962 19.4586 26.8575 20.6474 27.0488C21.8363 27.2401 23.0551 27.0517 24.1307 26.5103C25.2063 25.969 26.0838 25.1022 26.6384 24.0334C27.1929 22.9646 27.3964 21.7481 27.2198 20.557C27.0396 19.3421 26.4735 18.2172 25.6049 17.3487C24.7364 16.4802 23.6116 15.9141 22.3966 15.7339ZM17.1625 12.9277C18.9438 12.0034 20.9713 11.6643 22.9565 11.9587C24.9814 12.259 26.8561 13.2025 28.3036 14.6501C29.7511 16.0976 30.6947 17.9723 30.995 19.9972C31.2894 21.9824 30.9503 24.0098 30.026 25.7912C29.1017 27.5726 27.6392 29.0171 25.8466 29.9194C24.054 30.8216 22.0225 31.1357 20.0411 30.8169C18.0597 30.498 16.2293 29.5625 14.8102 28.1435C13.3911 26.7244 12.4556 24.894 12.1368 22.9126C11.818 20.9312 12.132 18.8997 13.0343 17.1071C13.9366 15.3145 15.3811 13.852 17.1625 12.9277Z" fill="white" fill-opacity="0.8"/>
<path fill-rule="evenodd" clip-rule="evenodd" d="M30.0645 10.9844C30.0645 9.93053 30.9188 9.07617 31.9727 9.07617H31.9918C33.0457 9.07617 33.9 9.93053 33.9 10.9844C33.9 12.0383 33.0457 12.8927 31.9918 12.8927H31.9727C30.9188 12.8927 30.0645 12.0383 30.0645 10.9844Z" fill="white" fill-opacity="0.8"/>
</svg>
