<svg width="438" height="240" viewBox="0 0 438 240" fill="none" xmlns="http://www.w3.org/2000/svg">
<path d="M219 54.0742C206.365 73.0261 199 95.7924 199 120.279C199 144.765 206.365 167.531 219 186.483C231.635 167.531 239 144.765 239 120.279C239 95.7924 231.635 73.0261 219 54.0742Z" fill="#1F57AB"/>
<circle cx="119.5" cy="120.279" r="119.5" fill="#509BF5" fill-opacity="0.15"/>
<circle cx="318.5" cy="120.279" r="119.5" fill="#509BF5" fill-opacity="0.15"/>
<g clip-path="url(#clip0)">
<path d="M102.075 110.336H94.3684C94.1133 110.336 93.8665 110.426 93.6725 110.591C93.4784 110.756 93.35 110.984 93.3103 111.234L90.1932 130.873C90.1789 130.964 90.1846 131.057 90.21 131.146C90.2354 131.234 90.2798 131.317 90.3402 131.387C90.4006 131.457 90.4755 131.513 90.5599 131.551C90.6443 131.59 90.736 131.61 90.8288 131.61H94.5081C94.7634 131.61 95.0104 131.519 95.2044 131.354C95.3985 131.189 95.5268 130.961 95.5663 130.71L96.407 125.414C96.4464 125.163 96.5746 124.935 96.7684 124.77C96.9622 124.605 97.2089 124.514 97.464 124.514H99.9037C104.98 124.514 107.91 122.073 108.676 117.235C109.02 115.119 108.69 113.456 107.693 112.291C106.598 111.012 104.655 110.336 102.075 110.336ZM102.964 117.509C102.543 120.257 100.43 120.257 98.3869 120.257H97.224L98.0398 115.124C98.0637 114.974 98.1408 114.837 98.2571 114.739C98.3734 114.64 98.5213 114.586 98.6743 114.586H99.2073C100.599 114.586 101.912 114.586 102.59 115.374C102.995 115.844 103.119 116.543 102.964 117.509ZM125.112 117.42H121.422C121.269 117.42 121.121 117.474 121.005 117.573C120.888 117.672 120.811 117.809 120.787 117.959L120.624 118.984L120.366 118.613C119.567 117.46 117.785 117.075 116.007 117.075C111.929 117.075 108.446 120.145 107.767 124.45C107.415 126.598 107.916 128.652 109.142 130.084C110.267 131.401 111.876 131.95 113.791 131.95C117.077 131.95 118.899 129.85 118.899 129.85L118.734 130.869C118.72 130.961 118.725 131.054 118.75 131.143C118.775 131.231 118.819 131.314 118.879 131.384C118.94 131.454 119.014 131.511 119.099 131.549C119.183 131.588 119.275 131.608 119.368 131.608H122.692C122.947 131.609 123.194 131.518 123.388 131.353C123.582 131.188 123.711 130.96 123.75 130.709L125.745 118.157C125.759 118.066 125.754 117.973 125.729 117.884C125.704 117.796 125.66 117.714 125.6 117.643C125.54 117.573 125.465 117.517 125.381 117.479C125.297 117.44 125.205 117.42 125.112 117.42ZM119.968 124.558C119.612 126.653 117.939 128.06 115.804 128.06C114.733 128.06 113.876 127.718 113.326 127.071C112.781 126.428 112.573 125.513 112.747 124.494C113.079 122.417 114.781 120.964 116.883 120.964C117.931 120.964 118.783 121.31 119.344 121.963C119.906 122.623 120.129 123.543 119.968 124.558ZM144.768 117.42H141.059C140.884 117.42 140.712 117.463 140.558 117.544C140.403 117.626 140.271 117.743 140.172 117.887L135.057 125.374L132.889 118.179C132.823 117.96 132.687 117.768 132.502 117.631C132.317 117.494 132.092 117.42 131.861 117.42H128.217C128.115 117.42 128.014 117.444 127.923 117.49C127.832 117.536 127.753 117.604 127.693 117.686C127.634 117.769 127.595 117.864 127.58 117.965C127.565 118.066 127.574 118.168 127.607 118.264L131.692 130.177L127.852 135.565C127.784 135.66 127.743 135.773 127.735 135.89C127.727 136.006 127.751 136.123 127.805 136.227C127.859 136.332 127.941 136.419 128.042 136.48C128.142 136.541 128.258 136.573 128.376 136.573H132.08C132.253 136.573 132.423 136.532 132.577 136.452C132.73 136.372 132.862 136.257 132.96 136.116L145.295 118.422C145.362 118.327 145.401 118.215 145.409 118.098C145.416 117.982 145.391 117.866 145.337 117.763C145.282 117.659 145.201 117.573 145.1 117.512C145 117.452 144.885 117.42 144.768 117.42Z" fill="white"/>
<path d="M157.046 110.337H149.338C149.083 110.337 148.837 110.428 148.643 110.592C148.449 110.757 148.321 110.985 148.281 111.235L145.164 130.874C145.15 130.965 145.155 131.058 145.18 131.147C145.205 131.235 145.25 131.317 145.31 131.387C145.37 131.457 145.445 131.514 145.529 131.552C145.613 131.591 145.705 131.611 145.797 131.611H149.753C149.931 131.61 150.104 131.547 150.239 131.432C150.375 131.316 150.464 131.157 150.492 130.981L151.377 125.415C151.416 125.164 151.544 124.936 151.738 124.771C151.932 124.606 152.179 124.516 152.434 124.515H154.872C159.95 124.515 162.879 122.074 163.645 117.236C163.991 115.12 163.659 113.457 162.661 112.292C161.567 111.013 159.626 110.337 157.046 110.337ZM157.935 117.51C157.515 120.258 155.402 120.258 153.358 120.258H152.196L153.013 115.126C153.036 114.975 153.113 114.838 153.229 114.74C153.345 114.641 153.493 114.587 153.646 114.587H154.179C155.57 114.587 156.884 114.587 157.562 115.375C157.967 115.846 158.09 116.544 157.935 117.51ZM180.082 117.421H176.394C176.241 117.421 176.093 117.475 175.977 117.574C175.86 117.673 175.784 117.81 175.761 117.96L175.597 118.986L175.338 118.614C174.539 117.462 172.759 117.076 170.98 117.076C166.902 117.076 163.42 120.146 162.742 124.452C162.39 126.599 162.889 128.653 164.115 130.086C165.242 131.402 166.849 131.951 168.764 131.951C172.05 131.951 173.872 129.851 173.872 129.851L173.707 130.871C173.693 130.962 173.698 131.055 173.723 131.144C173.749 131.233 173.793 131.316 173.853 131.386C173.914 131.456 173.989 131.513 174.073 131.551C174.158 131.59 174.25 131.61 174.343 131.61H177.666C177.921 131.609 178.168 131.519 178.362 131.354C178.556 131.189 178.684 130.961 178.723 130.71L180.719 118.158C180.733 118.067 180.727 117.974 180.702 117.885C180.676 117.796 180.632 117.714 180.571 117.644C180.511 117.574 180.436 117.518 180.351 117.479C180.267 117.441 180.175 117.421 180.082 117.421ZM174.938 124.559C174.584 126.654 172.908 128.061 170.774 128.061C169.705 128.061 168.846 127.719 168.296 127.072C167.751 126.429 167.545 125.514 167.717 124.495C168.051 122.418 169.751 120.965 171.852 120.965C172.9 120.965 173.752 121.312 174.314 121.964C174.878 122.624 175.101 123.544 174.938 124.559ZM184.433 110.876L181.27 130.874C181.255 130.965 181.261 131.058 181.286 131.147C181.311 131.235 181.356 131.317 181.416 131.387C181.476 131.457 181.551 131.514 181.635 131.552C181.719 131.591 181.811 131.611 181.903 131.611H185.083C185.612 131.611 186.06 131.23 186.142 130.711L189.261 111.074C189.275 110.983 189.27 110.89 189.245 110.801C189.219 110.712 189.175 110.63 189.115 110.56C189.055 110.49 188.98 110.434 188.896 110.395C188.812 110.356 188.72 110.336 188.627 110.336H185.067C184.914 110.336 184.766 110.391 184.65 110.49C184.534 110.589 184.457 110.726 184.433 110.876Z" fill="white"/>
<path d="M75.9718 111.365C75.9402 111.566 75.9042 111.771 75.8636 111.981C74.4696 119.093 69.7006 121.55 63.6097 121.55H60.5085C59.7636 121.55 59.1359 122.088 59.0198 122.818L57.432 132.825L56.9824 135.661C56.9645 135.774 56.9713 135.889 57.0024 135.999C57.0336 136.108 57.0882 136.21 57.1627 136.296C57.2371 136.383 57.3295 136.453 57.4336 136.5C57.5377 136.548 57.651 136.573 57.7656 136.573H63.266C63.9173 136.573 64.4706 136.103 64.5732 135.464L64.6273 135.187L65.6629 128.656L65.7294 128.297C65.8308 127.657 66.3852 127.186 67.0366 127.186H67.8592C73.1883 127.186 77.3601 125.036 78.5794 118.814C79.0888 116.215 78.8251 114.045 77.4773 112.519C77.0501 112.047 76.54 111.656 75.9718 111.365Z" fill="white" fill-opacity="0.8"/>
<path d="M74.5152 110.787C74.0701 110.659 73.6173 110.559 73.1596 110.488C72.255 110.35 71.3408 110.283 70.4257 110.289H62.1407C61.8254 110.289 61.5205 110.401 61.2809 110.605C61.0414 110.809 60.8831 111.091 60.8347 111.4L59.0722 122.494L59.0215 122.817C59.0764 122.464 59.2567 122.142 59.5297 121.91C59.8028 121.677 60.1505 121.549 60.5101 121.549H63.6113C69.7022 121.549 74.4713 119.091 75.8652 111.98C75.9069 111.77 75.9419 111.565 75.9734 111.365C75.6056 111.173 75.2222 111.012 74.8274 110.884C74.7239 110.85 74.6198 110.817 74.5152 110.787Z" fill="white" fill-opacity="0.9"/>
<path d="M60.8339 111.401C60.8819 111.091 61.0401 110.809 61.2798 110.605C61.5194 110.402 61.8247 110.29 62.14 110.291H70.4249C71.4065 110.291 72.3226 110.355 73.1588 110.489C73.7246 110.578 74.2826 110.71 74.8277 110.885C75.2391 111.02 75.6211 111.18 75.9738 111.365C76.3885 108.737 75.9704 106.947 74.5404 105.327C72.9639 103.543 70.1184 102.779 66.4774 102.779H55.9071C55.1634 102.779 54.5289 103.317 54.414 104.048L50.0112 131.781C49.9907 131.91 49.9985 132.041 50.034 132.167C50.0696 132.292 50.1321 132.409 50.2173 132.508C50.3024 132.607 50.4081 132.687 50.5272 132.741C50.6463 132.796 50.7759 132.825 50.9071 132.825H57.4329L59.0714 122.494L60.8339 111.401Z" fill="white"/>
</g>
<path d="M374.001 112.501H361.195V115.731H365.794V129.537H369.419V115.731H374L374.001 112.501ZM315.821 112.501H302.996V115.731H307.596V129.537H311.221V115.731H315.82L315.821 112.501ZM352.892 111.967C348.858 111.967 346.616 114.682 346.616 118.612V129.538H350.202V118.53C350.202 116.823 351.157 115.506 352.931 115.506C354.704 115.506 355.64 117.07 355.64 118.53V129.538H359.226V118.612C359.246 114.682 356.926 111.967 352.892 111.967ZM339.366 112.501V129.537H342.952V112.501H339.366ZM327.204 119.25L327.32 120.011L330.692 129.537H332.154L336.734 112.501H333.206L331.023 121.452L330.887 122.419L330.711 121.452L327.788 112.501H326.618L323.695 121.452L323.519 122.419L323.402 121.452L321.219 112.501H317.672L322.253 129.537H323.714L327.086 120.011L327.204 119.25Z" fill="white"/>
<path fill-rule="evenodd" clip-rule="evenodd" d="M293.835 130.032C294.243 129.785 294.575 129.188 294.575 128.694V111.247C294.575 110.752 294.244 110.156 293.835 109.909L279.528 101.185C279.119 100.938 278.456 100.938 278.047 101.185L263.74 109.909C263.332 110.156 263 110.753 263 111.247V128.694C263 129.189 263.331 129.785 263.74 130.032L278.047 138.756C278.456 139.002 279.119 139.002 279.528 138.756L293.835 130.032ZM286.264 119.981L282.522 125.762L280.612 122.676L282.814 119.199C283.223 118.582 284.1 116.874 283.087 114.55C282.268 112.656 280.494 111.751 278.935 111.751C277.375 111.751 275.68 112.595 274.764 114.55C273.731 116.792 274.627 118.541 275.017 119.138C275.017 119.138 276.245 121.031 277.259 122.636L278.916 125.167L281.411 129.2C281.412 129.201 281.416 129.207 281.422 129.215C281.494 129.317 281.875 129.858 282.522 129.858C283.109 129.858 283.498 129.357 283.619 129.2C283.635 129.18 283.646 129.166 283.652 129.159L289.499 120.023H286.264V119.981ZM277.298 117.47C277.941 118.561 278.916 120.125 278.916 120.125C278.916 120.125 279.91 118.561 280.534 117.47C281.215 116.298 280.455 114.549 278.916 114.549C277.375 114.549 276.615 116.297 277.298 117.47ZM271.754 120.146L275.419 125.578L275.42 125.579L276.823 123.501L278.48 126.073L276.55 129.18C276.547 129.184 276.543 129.19 276.538 129.196C276.45 129.324 276.066 129.879 275.419 129.879C274.77 129.879 274.368 129.301 274.28 129.174C274.276 129.168 274.272 129.163 274.269 129.159L267.856 119.138C267.467 118.541 266.57 116.792 267.603 114.55C268.519 112.595 270.215 111.751 271.774 111.751C272.359 111.751 273.002 111.895 273.587 112.163L272.3 114.653C272.125 114.591 271.949 114.571 271.754 114.571C270.214 114.571 269.454 116.319 270.136 117.492C270.78 118.583 271.754 120.146 271.754 120.146Z" fill="white"/>
<defs>
<clipPath id="clip0">
<rect width="139.735" height="36.9548" fill="white" transform="translate(50 102.779)"/>
</clipPath>
</defs>
</svg>
