<svg width="442" height="518" viewBox="0 0 442 518" fill="none" xmlns="http://www.w3.org/2000/svg">
<circle cx="221" cy="268" r="221" fill="#509BF5" fill-opacity="0.15"/>
<path d="M221 47C267.671 47 313.143 61.7749 350.901 89.2072L221 268L221 47Z" fill="#1F57AB"/>
<path d="M299.227 9.18182C299.227 10.4091 299.006 11.4697 298.562 12.3636C298.119 13.2576 297.511 13.947 296.739 14.4318C295.966 14.9167 295.083 15.1591 294.091 15.1591C293.098 15.1591 292.216 14.9167 291.443 14.4318C290.67 13.947 290.063 13.2576 289.619 12.3636C289.176 11.4697 288.955 10.4091 288.955 9.18182C288.955 7.95455 289.176 6.89394 289.619 6C290.063 5.10606 290.67 4.41667 291.443 3.93182C292.216 3.44697 293.098 3.20455 294.091 3.20455C295.083 3.20455 295.966 3.44697 296.739 3.93182C297.511 4.41667 298.119 5.10606 298.562 6C299.006 6.89394 299.227 7.95455 299.227 9.18182ZM297.864 9.18182C297.864 8.17424 297.695 7.32386 297.358 6.63068C297.025 5.9375 296.572 5.41288 296 5.05682C295.432 4.70076 294.795 4.52273 294.091 4.52273C293.386 4.52273 292.748 4.70076 292.176 5.05682C291.608 5.41288 291.155 5.9375 290.818 6.63068C290.485 7.32386 290.318 8.17424 290.318 9.18182C290.318 10.1894 290.485 11.0398 290.818 11.733C291.155 12.4261 291.608 12.9508 292.176 13.3068C292.748 13.6629 293.386 13.8409 294.091 13.8409C294.795 13.8409 295.432 13.6629 296 13.3068C296.572 12.9508 297.025 12.4261 297.358 11.733C297.695 11.0398 297.864 10.1894 297.864 9.18182ZM306.915 11.4318V6.27273H308.256V15H306.915V13.5227H306.824C306.619 13.9659 306.301 14.3428 305.869 14.6534C305.438 14.9602 304.892 15.1136 304.233 15.1136C303.688 15.1136 303.203 14.9943 302.778 14.7557C302.354 14.5133 302.021 14.1496 301.778 13.6648C301.536 13.1761 301.415 12.5606 301.415 11.8182V6.27273H302.756V11.7273C302.756 12.3636 302.934 12.8712 303.29 13.25C303.65 13.6288 304.108 13.8182 304.665 13.8182C304.998 13.8182 305.337 13.733 305.682 13.5625C306.03 13.392 306.322 13.1307 306.557 12.7784C306.795 12.4261 306.915 11.9773 306.915 11.4318ZM310.712 15V6.27273H312.007V7.59091H312.098C312.257 7.15909 312.545 6.80871 312.962 6.53977C313.378 6.27083 313.848 6.13636 314.371 6.13636C314.469 6.13636 314.592 6.13826 314.74 6.14205C314.888 6.14583 315 6.15152 315.075 6.15909V7.52273C315.03 7.51136 314.926 7.49432 314.763 7.47159C314.604 7.44508 314.435 7.43182 314.257 7.43182C313.833 7.43182 313.454 7.52083 313.121 7.69886C312.791 7.87311 312.53 8.11553 312.337 8.42614C312.147 8.73295 312.053 9.08333 312.053 9.47727V15H310.712ZM327.347 8.22727L326.142 8.56818C326.066 8.36742 325.955 8.17235 325.807 7.98295C325.663 7.78977 325.466 7.63068 325.216 7.50568C324.966 7.38068 324.646 7.31818 324.256 7.31818C323.722 7.31818 323.277 7.44129 322.92 7.6875C322.568 7.92992 322.392 8.23864 322.392 8.61364C322.392 8.94697 322.513 9.21023 322.756 9.40341C322.998 9.59659 323.377 9.75758 323.892 9.88636L325.188 10.2045C325.968 10.3939 326.549 10.6837 326.932 11.0739C327.314 11.4602 327.506 11.9583 327.506 12.5682C327.506 13.0682 327.362 13.5152 327.074 13.9091C326.79 14.303 326.392 14.6136 325.881 14.8409C325.369 15.0682 324.775 15.1818 324.097 15.1818C323.206 15.1818 322.47 14.9886 321.886 14.6023C321.303 14.2159 320.934 13.6515 320.778 12.9091L322.051 12.5909C322.172 13.0606 322.402 13.4129 322.739 13.6477C323.08 13.8826 323.525 14 324.074 14C324.699 14 325.195 13.8674 325.562 13.6023C325.934 13.3333 326.119 13.0114 326.119 12.6364C326.119 12.3333 326.013 12.0795 325.801 11.875C325.589 11.6667 325.263 11.5114 324.824 11.4091L323.369 11.0682C322.57 10.8788 321.983 10.5852 321.608 10.1875C321.237 9.78598 321.051 9.28409 321.051 8.68182C321.051 8.18939 321.189 7.75379 321.466 7.375C321.746 6.99621 322.127 6.69886 322.608 6.48295C323.093 6.26705 323.642 6.15909 324.256 6.15909C325.119 6.15909 325.797 6.34848 326.29 6.72727C326.786 7.10606 327.138 7.60606 327.347 8.22727ZM329.524 18.2727V6.27273H330.82V7.65909H330.979C331.077 7.50758 331.214 7.31439 331.388 7.07955C331.566 6.84091 331.82 6.62879 332.149 6.44318C332.482 6.25379 332.933 6.15909 333.501 6.15909C334.236 6.15909 334.884 6.3428 335.445 6.71023C336.005 7.07765 336.443 7.59848 336.757 8.27273C337.071 8.94697 337.229 9.74242 337.229 10.6591C337.229 11.5833 337.071 12.3845 336.757 13.0625C336.443 13.7367 336.007 14.2595 335.45 14.6307C334.893 14.9981 334.251 15.1818 333.524 15.1818C332.964 15.1818 332.515 15.089 332.178 14.9034C331.84 14.714 331.581 14.5 331.399 14.2614C331.217 14.0189 331.077 13.8182 330.979 13.6591H330.865V18.2727H329.524ZM330.842 10.6364C330.842 11.2955 330.939 11.8769 331.132 12.3807C331.325 12.8807 331.607 13.2727 331.979 13.5568C332.35 13.8371 332.804 13.9773 333.342 13.9773C333.903 13.9773 334.371 13.8295 334.746 13.5341C335.125 13.2348 335.409 12.8333 335.598 12.3295C335.791 11.822 335.888 11.2576 335.888 10.6364C335.888 10.0227 335.793 9.4697 335.604 8.97727C335.418 8.48106 335.136 8.08902 334.757 7.80114C334.382 7.50947 333.911 7.36364 333.342 7.36364C332.797 7.36364 332.339 7.50189 331.967 7.77841C331.596 8.05114 331.316 8.43371 331.126 8.92614C330.937 9.41477 330.842 9.98485 330.842 10.6364ZM340.615 3.36364V15H339.274V3.36364H340.615ZM343.071 15V6.27273H344.412V15H343.071ZM343.753 4.81818C343.491 4.81818 343.266 4.72917 343.077 4.55114C342.891 4.37311 342.798 4.15909 342.798 3.90909C342.798 3.65909 342.891 3.44508 343.077 3.26705C343.266 3.08902 343.491 3 343.753 3C344.014 3 344.238 3.08902 344.423 3.26705C344.613 3.44508 344.707 3.65909 344.707 3.90909C344.707 4.15909 344.613 4.37311 344.423 4.55114C344.238 4.72917 344.014 4.81818 343.753 4.81818ZM350.663 6.27273V7.40909H346.141V6.27273H350.663ZM347.459 4.18182H348.8V12.5C348.8 12.8788 348.855 13.1629 348.964 13.3523C349.078 13.5379 349.222 13.6629 349.396 13.7273C349.574 13.7879 349.762 13.8182 349.959 13.8182C350.107 13.8182 350.228 13.8106 350.322 13.7955C350.417 13.7765 350.493 13.7614 350.55 13.75L350.822 14.9545C350.732 14.9886 350.605 15.0227 350.442 15.0568C350.279 15.0947 350.072 15.1136 349.822 15.1136C349.444 15.1136 349.072 15.0322 348.709 14.8693C348.349 14.7064 348.05 14.4583 347.811 14.125C347.576 13.7917 347.459 13.3712 347.459 12.8636V4.18182Z" fill="white"/>
<path opacity="0.5" d="M363.295 3.36364V15H361.886V4.84091H361.818L358.977 6.72727V5.29545L361.886 3.36364H363.295ZM370.438 15.1591C369.581 15.1591 368.852 14.9261 368.25 14.4602C367.648 13.9905 367.188 13.3106 366.869 12.4205C366.551 11.5265 366.392 10.447 366.392 9.18182C366.392 7.92424 366.551 6.85038 366.869 5.96023C367.191 5.06629 367.653 4.38447 368.256 3.91477C368.862 3.44129 369.589 3.20455 370.438 3.20455C371.286 3.20455 372.011 3.44129 372.614 3.91477C373.22 4.38447 373.682 5.06629 374 5.96023C374.322 6.85038 374.483 7.92424 374.483 9.18182C374.483 10.447 374.324 11.5265 374.006 12.4205C373.688 13.3106 373.227 13.9905 372.625 14.4602C372.023 14.9261 371.294 15.1591 370.438 15.1591ZM370.438 13.9091C371.286 13.9091 371.945 13.5 372.415 12.6818C372.884 11.8636 373.119 10.697 373.119 9.18182C373.119 8.17424 373.011 7.31629 372.795 6.60795C372.583 5.89962 372.277 5.35985 371.875 4.98864C371.477 4.61742 370.998 4.43182 370.438 4.43182C369.597 4.43182 368.939 4.84659 368.466 5.67614C367.992 6.50189 367.756 7.67045 367.756 9.18182C367.756 10.1894 367.862 11.0455 368.074 11.75C368.286 12.4545 368.591 12.9905 368.989 13.358C369.39 13.7254 369.873 13.9091 370.438 13.9091ZM382.574 12.8182V12.2045C382.574 11.7803 382.661 11.392 382.835 11.0398C383.013 10.6837 383.271 10.3996 383.608 10.1875C383.949 9.97159 384.362 9.86364 384.847 9.86364C385.339 9.86364 385.752 9.97159 386.085 10.1875C386.419 10.3996 386.67 10.6837 386.841 11.0398C387.011 11.392 387.097 11.7803 387.097 12.2045V12.8182C387.097 13.2424 387.009 13.6326 386.835 13.9886C386.665 14.3409 386.411 14.625 386.074 14.8409C385.741 15.053 385.331 15.1591 384.847 15.1591C384.354 15.1591 383.939 15.053 383.602 14.8409C383.265 14.625 383.009 14.3409 382.835 13.9886C382.661 13.6326 382.574 13.2424 382.574 12.8182ZM383.733 12.2045V12.8182C383.733 13.1705 383.816 13.4867 383.983 13.767C384.15 14.0436 384.438 14.1818 384.847 14.1818C385.244 14.1818 385.525 14.0436 385.688 13.767C385.854 13.4867 385.938 13.1705 385.938 12.8182V12.2045C385.938 11.8523 385.858 11.5379 385.699 11.2614C385.54 10.9811 385.256 10.8409 384.847 10.8409C384.449 10.8409 384.163 10.9811 383.989 11.2614C383.818 11.5379 383.733 11.8523 383.733 12.2045ZM376.778 6.15909V5.54545C376.778 5.12121 376.866 4.73295 377.04 4.38068C377.218 4.02462 377.475 3.74053 377.812 3.52841C378.153 3.3125 378.566 3.20455 379.051 3.20455C379.544 3.20455 379.956 3.3125 380.29 3.52841C380.623 3.74053 380.875 4.02462 381.045 4.38068C381.216 4.73295 381.301 5.12121 381.301 5.54545V6.15909C381.301 6.58333 381.214 6.97348 381.04 7.32955C380.869 7.68182 380.616 7.96591 380.278 8.18182C379.945 8.39394 379.536 8.5 379.051 8.5C378.559 8.5 378.144 8.39394 377.807 8.18182C377.47 7.96591 377.214 7.68182 377.04 7.32955C376.866 6.97348 376.778 6.58333 376.778 6.15909ZM377.938 5.54545V6.15909C377.938 6.51136 378.021 6.82765 378.188 7.10795C378.354 7.38447 378.642 7.52273 379.051 7.52273C379.449 7.52273 379.729 7.38447 379.892 7.10795C380.059 6.82765 380.142 6.51136 380.142 6.15909V5.54545C380.142 5.19318 380.062 4.87879 379.903 4.60227C379.744 4.32197 379.46 4.18182 379.051 4.18182C378.653 4.18182 378.367 4.32197 378.193 4.60227C378.023 4.87879 377.938 5.19318 377.938 5.54545ZM377.21 15L385.21 3.36364H386.506L378.506 15H377.21Z" fill="white"/>
<path d="M262.5 38L278 26.5H352" stroke="white"/>
<path d="M299.909 493.364H301.523L304.75 498.795H304.886L308.114 493.364H309.727L305.523 500.205V505H304.114V500.205L299.909 493.364ZM313.679 505.182C312.891 505.182 312.2 504.994 311.605 504.619C311.014 504.244 310.552 503.72 310.219 503.045C309.889 502.371 309.724 501.583 309.724 500.682C309.724 499.773 309.889 498.979 310.219 498.301C310.552 497.623 311.014 497.097 311.605 496.722C312.2 496.347 312.891 496.159 313.679 496.159C314.467 496.159 315.156 496.347 315.747 496.722C316.342 497.097 316.804 497.623 317.134 498.301C317.467 498.979 317.634 499.773 317.634 500.682C317.634 501.583 317.467 502.371 317.134 503.045C316.804 503.72 316.342 504.244 315.747 504.619C315.156 504.994 314.467 505.182 313.679 505.182ZM313.679 503.977C314.277 503.977 314.77 503.824 315.156 503.517C315.543 503.21 315.829 502.807 316.014 502.307C316.2 501.807 316.293 501.265 316.293 500.682C316.293 500.098 316.2 499.555 316.014 499.051C315.829 498.547 315.543 498.14 315.156 497.83C314.77 497.519 314.277 497.364 313.679 497.364C313.08 497.364 312.588 497.519 312.202 497.83C311.815 498.14 311.529 498.547 311.344 499.051C311.158 499.555 311.065 500.098 311.065 500.682C311.065 501.265 311.158 501.807 311.344 502.307C311.529 502.807 311.815 503.21 312.202 503.517C312.588 503.824 313.08 503.977 313.679 503.977ZM325.18 501.432V496.273H326.521V505H325.18V503.523H325.089C324.885 503.966 324.567 504.343 324.135 504.653C323.703 504.96 323.158 505.114 322.499 505.114C321.953 505.114 321.468 504.994 321.044 504.756C320.62 504.513 320.286 504.15 320.044 503.665C319.802 503.176 319.68 502.561 319.68 501.818V496.273H321.021V501.727C321.021 502.364 321.199 502.871 321.555 503.25C321.915 503.629 322.374 503.818 322.93 503.818C323.264 503.818 323.603 503.733 323.947 503.562C324.296 503.392 324.588 503.131 324.822 502.778C325.061 502.426 325.18 501.977 325.18 501.432ZM328.977 505V496.273H330.273V497.591H330.364C330.523 497.159 330.811 496.809 331.227 496.54C331.644 496.271 332.114 496.136 332.636 496.136C332.735 496.136 332.858 496.138 333.006 496.142C333.153 496.146 333.265 496.152 333.341 496.159V497.523C333.295 497.511 333.191 497.494 333.028 497.472C332.869 497.445 332.701 497.432 332.523 497.432C332.098 497.432 331.72 497.521 331.386 497.699C331.057 497.873 330.795 498.116 330.602 498.426C330.413 498.733 330.318 499.083 330.318 499.477V505H328.977ZM345.612 498.227L344.408 498.568C344.332 498.367 344.22 498.172 344.072 497.983C343.929 497.79 343.732 497.631 343.482 497.506C343.232 497.381 342.911 497.318 342.521 497.318C341.987 497.318 341.542 497.441 341.186 497.688C340.834 497.93 340.658 498.239 340.658 498.614C340.658 498.947 340.779 499.21 341.021 499.403C341.264 499.597 341.643 499.758 342.158 499.886L343.453 500.205C344.233 500.394 344.815 500.684 345.197 501.074C345.58 501.46 345.771 501.958 345.771 502.568C345.771 503.068 345.627 503.515 345.339 503.909C345.055 504.303 344.658 504.614 344.146 504.841C343.635 505.068 343.04 505.182 342.362 505.182C341.472 505.182 340.735 504.989 340.152 504.602C339.569 504.216 339.199 503.652 339.044 502.909L340.317 502.591C340.438 503.061 340.667 503.413 341.004 503.648C341.345 503.883 341.79 504 342.339 504C342.964 504 343.461 503.867 343.828 503.602C344.199 503.333 344.385 503.011 344.385 502.636C344.385 502.333 344.279 502.08 344.067 501.875C343.855 501.667 343.529 501.511 343.089 501.409L341.635 501.068C340.836 500.879 340.249 500.585 339.874 500.188C339.502 499.786 339.317 499.284 339.317 498.682C339.317 498.189 339.455 497.754 339.732 497.375C340.012 496.996 340.393 496.699 340.874 496.483C341.358 496.267 341.908 496.159 342.521 496.159C343.385 496.159 344.063 496.348 344.555 496.727C345.052 497.106 345.404 497.606 345.612 498.227ZM347.79 508.273V496.273H349.085V497.659H349.244C349.343 497.508 349.479 497.314 349.653 497.08C349.831 496.841 350.085 496.629 350.415 496.443C350.748 496.254 351.199 496.159 351.767 496.159C352.502 496.159 353.15 496.343 353.71 496.71C354.271 497.078 354.708 497.598 355.023 498.273C355.337 498.947 355.494 499.742 355.494 500.659C355.494 501.583 355.337 502.384 355.023 503.062C354.708 503.737 354.273 504.259 353.716 504.631C353.159 504.998 352.517 505.182 351.79 505.182C351.229 505.182 350.78 505.089 350.443 504.903C350.106 504.714 349.847 504.5 349.665 504.261C349.483 504.019 349.343 503.818 349.244 503.659H349.131V508.273H347.79ZM349.108 500.636C349.108 501.295 349.205 501.877 349.398 502.381C349.591 502.881 349.873 503.273 350.244 503.557C350.616 503.837 351.07 503.977 351.608 503.977C352.169 503.977 352.636 503.83 353.011 503.534C353.39 503.235 353.674 502.833 353.864 502.33C354.057 501.822 354.153 501.258 354.153 500.636C354.153 500.023 354.059 499.47 353.869 498.977C353.684 498.481 353.402 498.089 353.023 497.801C352.648 497.509 352.176 497.364 351.608 497.364C351.063 497.364 350.604 497.502 350.233 497.778C349.862 498.051 349.581 498.434 349.392 498.926C349.203 499.415 349.108 499.985 349.108 500.636ZM358.881 493.364V505H357.54V493.364H358.881ZM361.337 505V496.273H362.678V505H361.337ZM362.018 494.818C361.757 494.818 361.532 494.729 361.342 494.551C361.157 494.373 361.064 494.159 361.064 493.909C361.064 493.659 361.157 493.445 361.342 493.267C361.532 493.089 361.757 493 362.018 493C362.28 493 362.503 493.089 362.689 493.267C362.878 493.445 362.973 493.659 362.973 493.909C362.973 494.159 362.878 494.373 362.689 494.551C362.503 494.729 362.28 494.818 362.018 494.818ZM368.929 496.273V497.409H364.406V496.273H368.929ZM365.724 494.182H367.065V502.5C367.065 502.879 367.12 503.163 367.23 503.352C367.344 503.538 367.488 503.663 367.662 503.727C367.84 503.788 368.027 503.818 368.224 503.818C368.372 503.818 368.493 503.811 368.588 503.795C368.683 503.777 368.759 503.761 368.815 503.75L369.088 504.955C368.997 504.989 368.87 505.023 368.707 505.057C368.545 505.095 368.338 505.114 368.088 505.114C367.709 505.114 367.338 505.032 366.974 504.869C366.615 504.706 366.315 504.458 366.077 504.125C365.842 503.792 365.724 503.371 365.724 502.864V494.182Z" fill="white"/>
<path d="M380.909 493.182C381.386 493.186 381.864 493.277 382.341 493.455C382.818 493.633 383.254 493.928 383.648 494.341C384.042 494.754 384.358 495.316 384.597 496.028C384.835 496.737 384.955 497.629 384.955 498.705C384.955 499.739 384.856 500.657 384.659 501.46C384.466 502.259 384.186 502.934 383.818 503.483C383.455 504.032 383.011 504.449 382.489 504.733C381.97 505.017 381.383 505.159 380.727 505.159C380.076 505.159 379.494 505.03 378.983 504.773C378.475 504.511 378.059 504.15 377.733 503.688C377.411 503.222 377.205 502.682 377.114 502.068H378.5C378.625 502.602 378.873 503.044 379.244 503.392C379.619 503.737 380.114 503.909 380.727 503.909C381.625 503.909 382.333 503.517 382.852 502.733C383.375 501.949 383.636 500.841 383.636 499.409H383.545C383.333 499.727 383.081 500.002 382.79 500.233C382.498 500.464 382.174 500.642 381.818 500.767C381.462 500.892 381.083 500.955 380.682 500.955C380.015 500.955 379.403 500.79 378.847 500.46C378.294 500.127 377.85 499.67 377.517 499.091C377.188 498.508 377.023 497.841 377.023 497.091C377.023 496.371 377.182 495.714 377.5 495.119C377.822 494.525 378.273 494.051 378.852 493.699C379.436 493.347 380.121 493.174 380.909 493.182ZM380.909 494.432C380.432 494.432 380.002 494.551 379.619 494.79C379.241 495.028 378.939 495.348 378.716 495.75C378.496 496.152 378.386 496.598 378.386 497.091C378.386 497.576 378.492 498.017 378.705 498.415C378.92 498.809 379.214 499.123 379.585 499.358C379.96 499.589 380.386 499.705 380.864 499.705C381.223 499.705 381.559 499.634 381.869 499.494C382.18 499.35 382.451 499.155 382.682 498.909C382.917 498.659 383.1 498.377 383.233 498.062C383.366 497.744 383.432 497.413 383.432 497.068C383.432 496.606 383.322 496.174 383.102 495.773C382.886 495.371 382.587 495.047 382.205 494.801C381.826 494.555 381.394 494.432 380.909 494.432ZM390.984 505.159C390.128 505.159 389.399 504.926 388.797 504.46C388.195 503.991 387.734 503.311 387.416 502.42C387.098 501.527 386.939 500.447 386.939 499.182C386.939 497.924 387.098 496.85 387.416 495.96C387.738 495.066 388.2 494.384 388.803 493.915C389.409 493.441 390.136 493.205 390.984 493.205C391.833 493.205 392.558 493.441 393.161 493.915C393.767 494.384 394.229 495.066 394.547 495.96C394.869 496.85 395.03 497.924 395.03 499.182C395.03 500.447 394.871 501.527 394.553 502.42C394.234 503.311 393.774 503.991 393.172 504.46C392.57 504.926 391.84 505.159 390.984 505.159ZM390.984 503.909C391.833 503.909 392.492 503.5 392.962 502.682C393.431 501.864 393.666 500.697 393.666 499.182C393.666 498.174 393.558 497.316 393.342 496.608C393.13 495.9 392.823 495.36 392.422 494.989C392.024 494.617 391.545 494.432 390.984 494.432C390.143 494.432 389.486 494.847 389.013 495.676C388.539 496.502 388.303 497.67 388.303 499.182C388.303 500.189 388.409 501.045 388.621 501.75C388.833 502.455 389.138 502.991 389.536 503.358C389.937 503.725 390.42 503.909 390.984 503.909ZM403.121 502.818V502.205C403.121 501.78 403.208 501.392 403.382 501.04C403.56 500.684 403.818 500.4 404.155 500.188C404.496 499.972 404.909 499.864 405.393 499.864C405.886 499.864 406.299 499.972 406.632 500.188C406.965 500.4 407.217 500.684 407.388 501.04C407.558 501.392 407.643 501.78 407.643 502.205V502.818C407.643 503.242 407.556 503.633 407.382 503.989C407.212 504.341 406.958 504.625 406.621 504.841C406.287 505.053 405.878 505.159 405.393 505.159C404.901 505.159 404.486 505.053 404.149 504.841C403.812 504.625 403.556 504.341 403.382 503.989C403.208 503.633 403.121 503.242 403.121 502.818ZM404.28 502.205V502.818C404.28 503.17 404.363 503.487 404.53 503.767C404.696 504.044 404.984 504.182 405.393 504.182C405.791 504.182 406.071 504.044 406.234 503.767C406.401 503.487 406.484 503.17 406.484 502.818V502.205C406.484 501.852 406.405 501.538 406.246 501.261C406.087 500.981 405.803 500.841 405.393 500.841C404.996 500.841 404.71 500.981 404.536 501.261C404.365 501.538 404.28 501.852 404.28 502.205ZM397.325 496.159V495.545C397.325 495.121 397.412 494.733 397.587 494.381C397.765 494.025 398.022 493.741 398.359 493.528C398.7 493.312 399.113 493.205 399.598 493.205C400.09 493.205 400.503 493.312 400.837 493.528C401.17 493.741 401.422 494.025 401.592 494.381C401.763 494.733 401.848 495.121 401.848 495.545V496.159C401.848 496.583 401.761 496.973 401.587 497.33C401.416 497.682 401.162 497.966 400.825 498.182C400.492 498.394 400.083 498.5 399.598 498.5C399.106 498.5 398.691 498.394 398.354 498.182C398.017 497.966 397.761 497.682 397.587 497.33C397.412 496.973 397.325 496.583 397.325 496.159ZM398.484 495.545V496.159C398.484 496.511 398.568 496.828 398.734 497.108C398.901 497.384 399.189 497.523 399.598 497.523C399.996 497.523 400.276 497.384 400.439 497.108C400.606 496.828 400.689 496.511 400.689 496.159V495.545C400.689 495.193 400.609 494.879 400.45 494.602C400.291 494.322 400.007 494.182 399.598 494.182C399.2 494.182 398.914 494.322 398.74 494.602C398.57 494.879 398.484 495.193 398.484 495.545ZM397.757 505L405.757 493.364H407.053L399.053 505H397.757Z" fill="white" fill-opacity="0.5"/>
<path d="M274 506L289.42 517H370" stroke="white"/>
</svg>
