<svg width="148" height="24" viewBox="0 0 148 24" fill="none" xmlns="http://www.w3.org/2000/svg">
<path d="M0 24H5.14286V16.1143H10.9863L15.272 24H20.9292L15.9578 15.0857C15.9578 15.0857 20.0721 13.5429 20.0721 8.05714C20.0721 3.25714 16.8149 0 11.6721 0H0V24ZM5.14286 11.3143V4.8H11.5006C13.3863 4.8 14.7578 6.17143 14.7578 8.05714C14.7578 9.94286 13.3863 11.3143 11.5006 11.3143H5.14286Z" fill="white"/>
<path d="M53.3332 24H58.3046L63.1732 8.4H63.3789L68.2475 24H73.2189L81.1046 0H75.7904L70.8189 16.1143H70.6475L65.6761 0H60.8761L55.9046 16.1143H55.7332L50.7618 0H45.4475L53.3332 24Z" fill="white"/>
<path d="M79.7587 24H85.2444L87.3015 18.5143H96.5587L98.6158 24H104.102L94.8444 0H89.0158L79.7587 24ZM89.0158 13.8857L91.8615 6H91.9987L94.8444 13.8857H89.0158Z" fill="white"/>
<path d="M110.947 24H116.775L125.689 0H120.204L113.929 17.6571H113.792L107.518 0H102.032L110.947 24Z" fill="white"/>
<path d="M129.28 24H147.452V19.2H134.423V14.0571H144.366V9.42858H134.423V4.8H147.109V0H129.28V24Z" fill="white"/>
<path d="M24.5627 11.7855C24.5627 10.2667 25.7939 9.03547 27.3127 9.03547H33.8842C35.403 9.03547 36.6342 10.2667 36.6342 11.7855C36.6342 13.3043 35.403 14.5355 33.8842 14.5355H27.3127C25.7939 14.5355 24.5627 13.3043 24.5627 11.7855Z" fill="white"/>
<path d="M24.5627 2.75C24.5627 1.23122 25.7939 0 27.3127 0H39.0985C40.6173 0 41.8485 1.23122 41.8485 2.75C41.8485 4.26878 40.6173 5.5 39.0985 5.5H27.3127C25.7939 5.5 24.5627 4.26878 24.5627 2.75Z" fill="white"/>
<path d="M24.5627 21.25C24.5627 19.7312 25.7939 18.5 27.3127 18.5H41.7414C43.2602 18.5 44.4914 19.7312 44.4914 21.25C44.4914 22.7688 43.2602 24 41.7414 24H27.3127C25.7939 24 24.5627 22.7688 24.5627 21.25Z" fill="white"/>
</svg>
