<svg width="136" height="22" viewBox="0 0 136 22" fill="none" xmlns="http://www.w3.org/2000/svg">
<path d="M0 22H4.71429V14.7714H10.0708L13.9994 22H19.1851L14.628 13.8286C14.628 13.8286 18.3994 12.4143 18.3994 7.38572C18.3994 2.98572 15.4137 0 10.6994 0H0V22ZM4.71429 10.3714V4.4H10.5422C12.2708 4.4 13.528 5.65714 13.528 7.38572C13.528 9.11429 12.2708 10.3714 10.5422 10.3714H4.71429Z" fill="#212121"/>
<path d="M48.8888 22H53.4459L57.9088 7.7H58.0974L62.5602 22H67.1174L74.3459 0H69.4745L64.9174 14.7714H64.7602L60.2031 0H55.8031L51.2459 14.7714H51.0888L46.5316 0H41.6602L48.8888 22Z" fill="#212121"/>
<path d="M73.1121 22H78.1407L80.0264 16.9714H88.5121L90.3978 22H95.4264L86.9407 0H81.5978L73.1121 22ZM81.5978 12.7286L84.2064 5.5H84.3321L86.9407 12.7286H81.5978Z" fill="#212121"/>
<path d="M101.701 22H107.044L115.215 0H110.187L104.435 16.1857H104.31L98.5582 0H93.5296L101.701 22Z" fill="#212121"/>
<path d="M118.507 22H135.164V17.6H123.221V12.8857H132.335V8.64286H123.221V4.4H134.85V0H118.507V22Z" fill="#212121"/>
<path d="M22.5158 10.8033C22.5158 9.41113 23.6444 8.28251 25.0366 8.28251H31.0605C32.4527 8.28251 33.5813 9.41113 33.5813 10.8033C33.5813 12.1956 32.4527 13.3242 31.0605 13.3242H25.0366C23.6444 13.3242 22.5158 12.1956 22.5158 10.8033Z" fill="#212121"/>
<path d="M22.5158 2.52083C22.5158 1.12861 23.6444 0 25.0366 0H35.8403C37.2325 0 38.3611 1.12861 38.3611 2.52083C38.3611 3.91305 37.2325 5.04166 35.8403 5.04166H25.0366C23.6444 5.04166 22.5158 3.91305 22.5158 2.52083Z" fill="#212121"/>
<path d="M22.5158 19.4792C22.5158 18.087 23.6444 16.9583 25.0366 16.9583H38.2629C39.6552 16.9583 40.7838 18.087 40.7838 19.4792C40.7838 20.8714 39.6552 22 38.263 22H25.0366C23.6444 22 22.5158 20.8714 22.5158 19.4792Z" fill="#212121"/>
</svg>
