<svg width="82" height="82" viewBox="0 0 82 82" fill="none" xmlns="http://www.w3.org/2000/svg">
<path d="M40.871 0.78125C18.5881 0.78125 0.523438 18.8459 0.523438 41.1293C0.523438 63.4137 18.5881 81.4769 40.871 81.4769C63.1563 81.4769 81.2191 63.4137 81.2191 41.1293C81.2191 18.8473 63.1563 0.783177 40.8706 0.783177L40.871 0.78125ZM59.3742 58.9748C58.6515 60.16 57.1001 60.5358 55.9148 59.8083C46.4416 54.0217 34.5161 52.7112 20.4715 55.9201C19.1181 56.2284 17.7691 55.3804 17.4607 54.0265C17.1509 52.6726 17.9955 51.3235 19.3523 51.0152C34.7218 47.5023 47.9054 49.0157 58.5407 55.5153C59.7259 56.2429 60.1017 57.7895 59.3742 58.9748ZM64.3126 47.987C63.402 49.4686 61.4652 49.9359 59.9861 49.0253C49.1407 42.3575 32.6086 40.4268 19.7806 44.3209C18.1169 44.8234 16.3598 43.8858 15.8549 42.225C15.3538 40.5613 16.2919 38.8075 17.9526 38.3016C32.6057 33.8554 50.8222 36.0091 63.2768 43.6627C64.7559 44.5733 65.2233 46.5097 64.3126 47.987ZM64.7366 36.5468C51.7328 28.8228 30.2781 28.1126 17.8626 31.8809C15.8689 32.4856 13.7605 31.3601 13.1563 29.3663C12.5521 27.3716 13.6766 25.2646 15.6718 24.6585C29.924 20.3318 53.6166 21.1678 68.5882 30.0558C70.3853 31.1201 70.9731 33.4362 69.9083 35.2271C68.8483 37.0204 66.5261 37.6116 64.7386 36.5468H64.7366Z" fill="white" fill-opacity="0.8"/>
</svg>
