<svg width="83" height="13" viewBox="0 0 83 13" fill="none" xmlns="http://www.w3.org/2000/svg">
<g clip-path="url(#clip0)">
<path d="M30.3898 11.9736H28.295V4.12063H25.5859V2.2227H33.0989V4.12063H30.3898V11.9736Z" fill="white" fill-opacity="0.8"/>
<path d="M41.4745 11.9736H39.3672V2.22266H41.4745V11.9736Z" fill="white" fill-opacity="0.8"/>
<path d="M78.6575 10.0492H82.3018V11.9736H76.5508V2.2227H78.6575V10.0492Z" fill="white" fill-opacity="0.8"/>
<path d="M48.4883 2.2227H51.9019C54.4203 2.2227 56.9261 3.63242 56.9261 7.07161C56.9261 10.3135 54.47 11.9736 52.0264 11.9736H48.4883V2.2227ZM50.5328 10.0624H51.8397C53.5976 10.0624 54.7691 8.90316 54.7691 7.05834C54.7691 5.30585 53.585 4.12063 51.8893 4.12063H50.5328V10.0624Z" fill="white" fill-opacity="0.8"/>
<path d="M68.62 11.9736H70.9363L67.1356 2.2227H64.9603L61.123 11.9736H63.3765L64.0565 10.0498H67.9463L68.62 11.9736ZM64.6212 8.31718L66.0108 4.50383L67.3874 8.31718H64.6212Z" fill="white" fill-opacity="0.8"/>
<path d="M11.4981 3.64362L8.79818 6.49805L6.09766 3.64362L8.79818 0.79039L11.4981 3.64362Z" fill="white" fill-opacity="0.8"/>
<path d="M11.4981 9.3526L8.79818 12.207L6.09766 9.3526L8.79818 6.49817L11.4981 9.3526Z" fill="white" fill-opacity="0.8"/>
<path d="M6.09774 3.64362L3.39722 6.49805L0.697266 3.64362L3.39722 0.789788L6.09774 3.64362Z" fill="white" fill-opacity="0.8"/>
<path d="M16.8985 3.64362L14.1986 6.49805L11.498 3.64362L14.1986 0.789788L16.8985 3.64362Z" fill="white" fill-opacity="0.8"/>
</g>
<defs>
<clipPath id="clip0">
<rect width="82.4609" height="12.3217" fill="white" transform="translate(0.269531 0.337891)"/>
</clipPath>
</defs>
</svg>
