<svg width="57" height="80" viewBox="0 0 57 80" fill="none" xmlns="http://www.w3.org/2000/svg">
<g opacity="0.8">
<path fill-rule="evenodd" clip-rule="evenodd" d="M40.8095 79.1239C43.6409 79.1239 45.9363 76.847 45.9363 74.0387C45.9363 71.2303 43.6409 68.9531 40.8095 68.9531H40.0371C42.8685 68.9531 45.164 71.2303 45.164 74.0387C45.164 76.847 42.8685 79.1239 40.0371 79.1239H40.8095Z" fill="white" fill-opacity="0.5"/>
<path fill-rule="evenodd" clip-rule="evenodd" d="M39.968 68.9531H39.1956C36.3642 68.9531 34.0684 71.2303 34.0684 74.0387C34.0684 76.847 36.3642 79.1239 39.1956 79.1239H39.968C37.1361 79.1239 34.8407 76.847 34.8407 74.0387C34.8407 71.2303 37.1361 68.9531 39.968 68.9531Z" fill="white" fill-opacity="0.2"/>
<path d="M40.0032 76.5156C41.3803 76.5156 42.4967 75.4085 42.4967 74.0429C42.4967 72.6773 41.3803 71.5703 40.0032 71.5703C38.6261 71.5703 37.5098 72.6773 37.5098 74.0429C37.5098 75.4085 38.6261 76.5156 40.0032 76.5156Z" fill="#010101"/>
<path fill-rule="evenodd" clip-rule="evenodd" d="M0.990234 66.6582V69.2358H4.00964V79.0578H7.03015V69.3054H9.48789L10.3306 66.6582H0.990234ZM25.7108 66.6582V69.2358H28.7302V79.0578H31.7508V69.3054H34.2085L35.0512 66.6582H25.7108ZM10.893 68.121C10.893 67.3133 11.5522 66.6582 12.3666 66.6582C13.1817 66.6582 13.8417 67.3133 13.8417 68.121C13.8417 68.9287 13.1821 69.5838 12.3666 69.5838C11.5522 69.5834 10.893 68.9287 10.893 68.121ZM10.893 70.629H13.8417V79.0578H10.893V70.629ZM15.1061 66.6582V79.0578H18.0559V75.8538L18.9689 75.017L21.848 79.1274H25.0081L20.8642 73.1366L24.5864 69.5138H21.0049L18.0559 72.4394V66.6582H15.1061ZM46.9192 66.6582V79.0578H49.8694V75.8538L50.7821 75.017L53.6619 79.1274H56.8224L52.6785 73.1366L56.4007 69.5138H52.8192L49.8694 72.4394V66.6582H46.9192Z" fill="white"/>
<path fill-rule="evenodd" clip-rule="evenodd" d="M42.3671 23.737C46.4406 26.6474 51.4312 28.3599 56.8209 28.3599V17.9934C55.8008 17.9938 54.7834 17.8874 53.7855 17.6759V25.8359C48.3962 25.8359 43.4063 24.1234 39.3317 21.213V42.3678C39.3317 52.9506 30.7484 61.529 20.1608 61.529C16.2105 61.529 12.5386 60.3354 9.48828 58.2882C12.9696 61.8458 17.8244 64.053 23.1954 64.053C33.7838 64.053 42.3675 55.4746 42.3675 44.8914V23.737H42.3671ZM46.1116 13.2785C44.0298 11.0054 42.663 8.06754 42.3671 4.8196V3.48633H39.4906C40.2146 7.61418 42.6842 11.1409 46.1116 13.2785ZM16.1848 50.1676C15.0218 48.6434 14.3931 46.7785 14.3959 44.8613C14.3959 40.021 18.322 36.0968 23.1657 36.0968C24.0682 36.0961 24.9655 36.2346 25.8259 36.5073V25.9093C24.8206 25.7716 23.806 25.7132 22.7916 25.7347V33.9837C21.9308 33.711 21.0332 33.5725 20.1303 33.5732C15.2866 33.5732 11.3609 37.4974 11.3609 42.3381C11.3609 45.7606 13.3232 48.7241 16.1848 50.1676Z" fill="white" fill-opacity="0.2"/>
<path fill-rule="evenodd" clip-rule="evenodd" d="M39.3348 21.213C43.4095 24.1234 48.3994 25.8359 53.7887 25.8359V17.6759C50.7804 17.0357 48.1172 15.4642 46.1147 13.2785C42.6874 11.1409 40.2177 7.61418 39.4938 3.48633H31.9382V44.8911C31.9211 49.718 28.0017 53.6262 23.1685 53.6262C20.3203 53.6262 17.79 52.2695 16.1876 50.1676C13.326 48.7241 11.3637 45.7606 11.3637 42.3381C11.3637 37.4974 15.2894 33.5732 20.1331 33.5732C21.061 33.5732 21.9554 33.7176 22.7944 33.9837V25.7347C12.3929 25.9495 4.02734 34.4441 4.02734 44.8914C4.02734 50.1065 6.11063 54.8344 9.49145 58.2886C12.5417 60.3357 16.2136 61.5294 20.164 61.5294C30.7516 61.5294 39.3348 52.9506 39.3348 42.3682V21.213Z" fill="white"/>
<path fill-rule="evenodd" clip-rule="evenodd" d="M53.7866 17.6761V15.4696C51.0737 15.4737 48.4144 14.7143 46.1127 13.2783C48.1501 15.5078 50.833 17.0453 53.7866 17.6761ZM39.4917 3.4865C39.4225 3.09205 39.3695 2.69494 39.3328 2.29616V0.962891H28.9003V42.368C28.8836 47.1945 24.9646 51.1028 20.131 51.1028C18.7117 51.1028 17.3721 50.7663 16.1855 50.1678C17.7879 52.2696 20.3182 53.6264 23.1664 53.6264C27.9992 53.6264 31.919 49.7181 31.9361 44.8912V3.4865H39.4917ZM22.7927 25.7349V23.3858C21.9209 23.2666 21.0421 23.2071 20.1622 23.2075C9.5735 23.2075 0.990234 31.7863 0.990234 42.368C0.990234 49.0024 4.36361 54.8491 9.48975 58.2883C6.10892 54.8342 4.02564 50.1063 4.02564 44.8912C4.02564 34.4443 12.3908 25.9496 22.7927 25.7349Z" fill="white" fill-opacity="0.2"/>
<path fill-rule="evenodd" clip-rule="evenodd" d="M40.0367 79.1239C42.8681 79.1239 45.164 76.847 45.164 74.0387C45.164 71.2303 42.8681 68.9531 40.0367 68.9531H39.9667C37.1353 68.9531 34.8398 71.2303 34.8398 74.0387C34.8398 76.847 37.1353 79.1239 39.9667 79.1239H40.0367ZM37.5086 74.0387C37.5086 72.6727 38.6253 71.5661 40.0025 71.5661C41.3785 71.5661 42.4952 72.6727 42.4952 74.0387C42.4952 75.4047 41.3785 76.5121 40.0025 76.5121C38.6253 76.5117 37.5086 75.4047 37.5086 74.0387Z" fill="white"/>
</g>
</svg>
