<svg width="96" height="15" viewBox="0 0 96 15" fill="none" xmlns="http://www.w3.org/2000/svg">
<g clip-path="url(#clip0)">
<path d="M70.3275 6.04492C69.9713 7.83578 69.7014 10.0185 69.5595 10.9208H69.4593C69.3452 9.99089 69.0753 7.81923 68.7051 6.05872L67.7951 1.67676H65.0234V13.5009H66.7432V3.7546L66.913 4.66521L68.6606 13.5009H70.3804L72.1002 4.66521L72.2839 3.74908V9.60733V13.5009H74.0037V1.67676H71.2041L70.3275 6.04492Z" fill="white" fill-opacity="0.8"/>
<path d="M78.6561 11.724C78.5002 12.0469 78.1579 12.2731 77.8184 12.2731C77.4205 12.2731 77.2646 11.9641 77.2646 11.2025V4.86133H75.3027V11.3156C75.3027 12.9078 75.8287 13.6418 76.9947 13.6418C77.7906 13.6418 78.4306 13.2886 78.8703 12.4442H78.9121L79.0818 13.5011H80.618V4.86133H78.6561V11.724Z" fill="white" fill-opacity="0.8"/>
<path d="M84.4123 8.27301C83.7723 7.80667 83.3743 7.49761 83.3743 6.82155C83.3743 6.34141 83.6025 6.07375 84.1424 6.07375C84.6962 6.07375 84.8826 6.45455 84.8966 7.75148L86.544 7.67973C86.672 5.57981 85.9763 4.70508 84.1702 4.70508C82.4922 4.70508 81.6685 5.45288 81.6685 6.98712C81.6685 8.38338 82.3503 9.01529 83.4606 9.84864C84.4123 10.5826 84.9661 10.991 84.9661 11.5816C84.9661 12.0313 84.6823 12.3432 84.1841 12.3432C83.6025 12.3432 83.2602 11.794 83.3465 10.8365L81.6824 10.8641C81.4264 12.655 82.1527 13.698 84.084 13.698C85.7759 13.698 86.6553 12.9226 86.6553 11.3718C86.6581 9.96453 85.9485 9.39885 84.4123 8.27301Z" fill="white" fill-opacity="0.8"/>
<path d="M89.612 4.86133H87.7363V13.5011H89.612V4.86133Z" fill="white" fill-opacity="0.8"/>
<path d="M88.6889 1.45117C87.9653 1.45117 87.623 1.71884 87.623 2.64876C87.623 3.60628 87.9653 3.84635 88.6889 3.84635C89.4291 3.84635 89.7547 3.60628 89.7547 2.64876C89.7547 1.76023 89.4291 1.45117 88.6889 1.45117Z" fill="white" fill-opacity="0.8"/>
<path d="M95.9234 10.3859L94.2036 10.3003C94.2036 11.8235 94.0339 12.3147 93.4495 12.3147C92.8679 12.3147 92.7677 11.7656 92.7677 9.97472V8.29699C92.7677 6.56408 92.8818 6.01495 93.4634 6.01495C94.0033 6.01495 94.1452 6.53648 94.1452 8.14246L95.8511 8.02933C95.9652 6.69101 95.7954 5.77488 95.2695 5.25335C94.8854 4.87255 94.3038 4.69043 93.494 4.69043C91.5906 4.69043 90.8086 5.7059 90.8086 8.55086V9.76224C90.8086 12.6927 91.4765 13.6365 93.4244 13.6365C94.2482 13.6365 94.8159 13.4681 95.1999 13.1011C95.7537 12.5989 95.9652 11.7242 95.9234 10.3859Z" fill="white" fill-opacity="0.8"/>
<path d="M28.9662 13.2476C28.5738 12.9854 28.2927 12.577 28.1285 12.0224C27.9616 11.4677 27.8809 10.731 27.8809 9.80933V8.55379C27.8809 7.62386 27.9755 6.87606 28.1647 6.31314C28.3539 5.75022 28.6489 5.33906 29.0524 5.07968C29.4559 4.82029 29.9847 4.69336 30.6386 4.69336C31.2843 4.69336 31.7991 4.82581 32.1887 5.08796C32.5783 5.3501 32.8621 5.76126 33.0402 6.32142C33.2211 6.88158 33.3102 7.62386 33.3102 8.55655V9.81209C33.3102 10.7337 33.2211 11.4733 33.0458 12.0334C32.8705 12.5936 32.5866 13.002 32.1942 13.2586C31.8019 13.518 31.2676 13.6449 30.5941 13.6449C29.9012 13.6422 29.3585 13.5097 28.9662 13.2476ZM31.1702 11.8954C31.2787 11.614 31.3344 11.1532 31.3344 10.513V7.81978C31.3344 7.19891 31.2787 6.74637 31.1702 6.45939C31.0616 6.17241 30.8696 6.02892 30.5941 6.02892C30.3298 6.02892 30.1405 6.17241 30.032 6.45939C29.9235 6.74637 29.8678 7.19891 29.8678 7.81978V10.513C29.8678 11.1532 29.9207 11.6112 30.0236 11.8954C30.1266 12.1769 30.3158 12.3176 30.5913 12.3176C30.8668 12.3176 31.0589 12.1769 31.1702 11.8954Z" fill="white" fill-opacity="0.8"/>
<path d="M59.1576 9.828V10.264C59.1576 10.8186 59.1743 11.2353 59.2077 11.5112C59.2411 11.7872 59.3107 11.9914 59.4136 12.1183C59.5166 12.2453 59.678 12.3087 59.8978 12.3087C60.19 12.3087 60.3932 12.1956 60.5017 11.9693C60.6103 11.743 60.6687 11.3678 60.6798 10.8407L62.3718 10.94C62.3801 11.0146 62.3857 11.1194 62.3857 11.2491C62.3857 12.0466 62.1659 12.6454 61.7234 13.04C61.2837 13.4346 60.6603 13.6332 59.8533 13.6332C58.8877 13.6332 58.2087 13.3325 57.8218 12.7309C57.4322 12.1294 57.2402 11.1994 57.2402 9.94114V8.43174C57.2402 7.13481 57.4406 6.18833 57.8441 5.59229C58.2476 4.99626 58.935 4.69824 59.9118 4.69824C60.5852 4.69824 61.1 4.81966 61.4618 5.06524C61.8208 5.31083 62.074 5.68887 62.2215 6.20764C62.369 6.72366 62.4414 7.43835 62.4414 8.34895V9.828H59.1576ZM59.4053 6.19109C59.3051 6.3125 59.2383 6.51394 59.2077 6.78988C59.1743 7.06582 59.1576 7.48802 59.1576 8.05094V8.67181H60.5936V8.05094C60.5936 7.49629 60.5741 7.07686 60.5379 6.78988C60.4989 6.5029 60.4321 6.30146 60.332 6.18281C60.2318 6.06415 60.0787 6.00621 59.87 6.00621C59.6585 6.00897 59.5055 6.06967 59.4053 6.19109Z" fill="white" fill-opacity="0.8"/>
<path d="M24.1889 9.66608L21.957 1.6748H23.905L24.687 5.29792C24.8874 6.19198 25.0321 6.95082 25.1267 7.57996H25.1823C25.2491 7.13018 25.3966 6.37134 25.622 5.31172L26.4318 1.6748H28.3798L26.1202 9.66608V13.4989H24.1861V9.66608H24.1889Z" fill="white" fill-opacity="0.8"/>
<path d="M39.6414 4.86133V13.5011H38.1053L37.9355 12.4442H37.8938C37.4763 13.2417 36.8502 13.6418 36.0181 13.6418C35.4393 13.6418 35.0135 13.4542 34.738 13.0789C34.4625 12.7036 34.3262 12.1158 34.3262 11.3156V4.86133H36.2881V11.2052C36.2881 11.5916 36.3298 11.8647 36.4161 12.0303C36.5024 12.1959 36.6443 12.2759 36.8419 12.2759C37.0116 12.2759 37.1758 12.2235 37.3316 12.1214C37.4875 12.0193 37.6044 11.8868 37.6795 11.7268V4.86133H39.6414Z" fill="white" fill-opacity="0.8"/>
<path d="M49.7039 4.86133V13.5011H48.1678L47.998 12.4442H47.9563C47.5389 13.2417 46.9127 13.6418 46.0806 13.6418C45.5018 13.6418 45.076 13.4542 44.8005 13.0789C44.525 12.7036 44.3887 12.1158 44.3887 11.3156V4.86133H46.3506V11.2052C46.3506 11.5916 46.3923 11.8647 46.4786 12.0303C46.5649 12.1959 46.7068 12.2759 46.9044 12.2759C47.0741 12.2759 47.2383 12.2235 47.3942 12.1214C47.55 12.0193 47.6669 11.8868 47.742 11.7268V4.86133H49.7039Z" fill="white" fill-opacity="0.8"/>
<path d="M44.9743 3.2394H43.0264V13.5017H41.1062V3.2394H39.1582V1.6748H44.9743V3.2394Z" fill="white" fill-opacity="0.8"/>
<path d="M56.1983 6.24111C56.0786 5.69751 55.8866 5.30291 55.6223 5.05732C55.3579 4.81173 54.9906 4.69032 54.5286 4.69032C54.1696 4.69032 53.8329 4.79242 53.5184 4.99385C53.2068 5.19529 52.9647 5.4602 52.7921 5.79133H52.7782V1.23828H50.8887V13.5012H52.5083L52.7086 12.6844H52.7504C52.9007 12.9769 53.1288 13.2059 53.4322 13.3742C53.7355 13.5425 54.0722 13.6281 54.4423 13.6281C55.1047 13.6281 55.5944 13.3245 55.9061 12.7202C56.2178 12.1132 56.3764 11.1667 56.3764 9.88079V8.51487C56.3764 7.54356 56.318 6.78748 56.1983 6.24111ZM54.4006 9.76489C54.4006 10.394 54.3756 10.888 54.3227 11.2439C54.2698 11.5999 54.1835 11.8538 54.0583 12.0055C53.9359 12.1573 53.7689 12.2318 53.5602 12.2318C53.3988 12.2318 53.2485 12.1932 53.1122 12.1187C52.9758 12.0442 52.8645 11.931 52.7782 11.7793V6.87578C52.845 6.64123 52.9591 6.44807 53.1205 6.29906C53.2819 6.15005 53.4572 6.07279 53.6465 6.07279C53.8468 6.07279 53.9999 6.15005 54.1084 6.30458C54.2169 6.45911 54.2921 6.72125 54.3366 7.08825C54.3783 7.45526 54.4006 7.97679 54.4006 8.65285V9.76489Z" fill="white" fill-opacity="0.8"/>
<path fill-rule="evenodd" clip-rule="evenodd" d="M17.8197 1.10647C18.6768 1.3355 19.3502 2.00328 19.5784 2.85042C19.9931 4.38742 19.9931 7.59386 19.9931 7.59386C19.9931 7.59386 19.9931 10.8003 19.5784 12.3373C19.3474 13.1872 18.674 13.855 17.8197 14.0813C16.2696 14.4924 10.0528 14.4924 10.0528 14.4924C10.0528 14.4924 3.83868 14.4924 2.28863 14.0813C1.43152 13.8522 0.758071 13.1844 0.529878 12.3373C0.115234 10.8003 0.115234 7.59386 0.115234 7.59386C0.115234 7.59386 0.115234 4.38742 0.529878 2.85042C0.760853 2.00052 1.4343 1.33274 2.28863 1.10647C3.83868 0.695312 10.0528 0.695312 10.0528 0.695312C10.0528 0.695312 16.2696 0.695312 17.8197 1.10647ZM13.231 7.59392L8.06604 4.63858V10.5493L13.231 7.59392Z" fill="white" fill-opacity="0.8"/>
</g>
<defs>
<clipPath id="clip0">
<rect width="95.8132" height="13.7971" fill="white" transform="translate(0.115234 0.695312)"/>
</clipPath>
</defs>
</svg>
